<svg id="Capa_1" data-name="Capa 1" xmlns="http://www.w3.org/2000/svg" width="343.3" height="94.34" viewBox="0 0 343.3 94.34"><title>PlayCast logo</title><path d="M139,27.79a18.71,18.71,0,0,0-8.36-1.74H114.27V68.71h7.59V52.95h8.79a20.35,20.35,0,0,0,8.42-1.58,11.71,11.71,0,0,0,5.33-4.57,13.37,13.37,0,0,0,1.83-7.12,13.48,13.48,0,0,0-1.85-7A12.54,12.54,0,0,0,139,27.79Zm-2.34,17.15q-1.95,1.91-6,1.9h-8.79V32.17h8.79a8.8,8.8,0,0,1,4.48,1A6.5,6.5,0,0,1,137.76,36a8.36,8.36,0,0,1,.85,3.76A7,7,0,0,1,136.66,44.95Z" transform="translate(-3.32 -2.83)"/><rect x="149.15" y="20.88" width="7.29" height="45"/><path d="M192.52,47.35a11,11,0,0,0-1.57-6,9.65,9.65,0,0,0-4.35-3.69,15.73,15.73,0,0,0-6.42-1.23,16.46,16.46,0,0,0-6.87,1.36,11.34,11.34,0,0,0-4.63,3.6,8,8,0,0,0-1.63,4.79h7.29A3.7,3.7,0,0,1,175,44a4.53,4.53,0,0,1,1.9-1.52,6.84,6.84,0,0,1,2.84-.56,4.88,4.88,0,0,1,5.45,5.36v2.05h-4.39q-6.91,0-10.68,2.7a9,9,0,0,0-3.76,7.76,8.87,8.87,0,0,0,1.38,4.86,9.42,9.42,0,0,0,3.84,3.4,12.28,12.28,0,0,0,5.57,1.23,11.07,11.07,0,0,0,4.72-1,11.33,11.33,0,0,0,3.57-2.58,13.05,13.05,0,0,0,.82,3h7.44v-.5a16.37,16.37,0,0,1-1.2-6.88Zm-7.29,12.42a7,7,0,0,1-2.59,2.61,7.62,7.62,0,0,1-4.06,1.08,5,5,0,0,1-3.6-1.22,4.13,4.13,0,0,1-1.29-3.15,4.46,4.46,0,0,1,2-3.87,10,10,0,0,1,5.77-1.38h3.81Z" transform="translate(-3.32 -2.83)"/><path d="M211,58.28,204.44,37h-7.88L207.7,68.59l-1,2.7a6.15,6.15,0,0,1-2.15,3.24,7.08,7.08,0,0,1-4,.92l-1.35-.06V81a14.4,14.4,0,0,0,3.49.53,8.41,8.41,0,0,0,6.4-2.36,16.12,16.12,0,0,0,3.44-5.64L225.19,37h-7.76Z" transform="translate(-3.32 -2.83)"/><path d="M238.65,35.24a8.42,8.42,0,0,1,7.4-3.62q4.37,0,6.4,2.15A11,11,0,0,1,255,40.2h7.56a18.47,18.47,0,0,0-2.42-7.69,13.68,13.68,0,0,0-5.52-5.19A18.2,18.2,0,0,0,246,25.46,17.09,17.09,0,0,0,236.77,28,16.3,16.3,0,0,0,230.65,35a24.85,24.85,0,0,0-2.15,10.69v3.37a25.29,25.29,0,0,0,2.11,10.69,16.09,16.09,0,0,0,6,7,16.67,16.67,0,0,0,9.14,2.48,19.08,19.08,0,0,0,8.73-1.85,13.74,13.74,0,0,0,5.64-5.13,17.19,17.19,0,0,0,2.39-7.56H255a13.34,13.34,0,0,1-1.33,4.64,6.45,6.45,0,0,1-2.9,2.78,11.19,11.19,0,0,1-5,1q-5,0-7.28-3.69t-2.33-10.37V45.65Q236.14,38.85,238.65,35.24Z" transform="translate(-3.32 -2.83)"/><path d="M293.48,47.35a11,11,0,0,0-1.57-6,9.65,9.65,0,0,0-4.35-3.69,15.73,15.73,0,0,0-6.42-1.23,16.46,16.46,0,0,0-6.87,1.36,11.35,11.35,0,0,0-4.63,3.6A8,8,0,0,0,268,46.18h7.29A3.7,3.7,0,0,1,276,44a4.53,4.53,0,0,1,1.9-1.52,6.84,6.84,0,0,1,2.84-.56,4.88,4.88,0,0,1,5.45,5.36v2.05h-4.39q-6.91,0-10.68,2.7a9.66,9.66,0,0,0-2.39,12.63,9.42,9.42,0,0,0,3.84,3.4,12.28,12.28,0,0,0,5.57,1.23,11.07,11.07,0,0,0,4.72-1,11.33,11.33,0,0,0,3.57-2.58,13.05,13.05,0,0,0,.82,3h7.44v-.5a16.37,16.37,0,0,1-1.2-6.88Zm-7.29,12.42a7,7,0,0,1-2.59,2.61,7.62,7.62,0,0,1-4.06,1.08,5,5,0,0,1-3.6-1.22,4.13,4.13,0,0,1-1.29-3.15,4.46,4.46,0,0,1,2-3.87,10,10,0,0,1,5.77-1.38h3.81Z" transform="translate(-3.32 -2.83)"/><path d="M320.34,51.95a31,31,0,0,0-6.42-2,22.82,22.82,0,0,1-3.9-1.11,4.82,4.82,0,0,1-2-1.32,2.82,2.82,0,0,1-.57-1.79A3.47,3.47,0,0,1,308.83,43a5.88,5.88,0,0,1,3.84-1.11,6.38,6.38,0,0,1,3,.64,4.45,4.45,0,0,1,2.49,4h7.29a9,9,0,0,0-1.55-5.17,10.42,10.42,0,0,0-4.44-3.62,16.19,16.19,0,0,0-6.78-1.32,15.15,15.15,0,0,0-6.46,1.3,10.35,10.35,0,0,0-4.31,3.52,8.38,8.38,0,0,0-1.51,4.82,7.15,7.15,0,0,0,3,6,21.24,21.24,0,0,0,8.41,3.37A20.45,20.45,0,0,1,316,56.7a4.7,4.7,0,0,1,2,1.46,3.35,3.35,0,0,1,.53,1.9A3.22,3.22,0,0,1,317,62.83a7.13,7.13,0,0,1-4.15,1,7.83,7.83,0,0,1-4.5-1.26,4.67,4.67,0,0,1-2-3.93h-7.06a9.25,9.25,0,0,0,1.58,5.13,11.46,11.46,0,0,0,4.63,4,15.94,15.94,0,0,0,7.21,1.52,17.54,17.54,0,0,0,6.77-1.22A10.3,10.3,0,0,0,324,64.66a8.26,8.26,0,0,0,1.6-5A7.71,7.71,0,0,0,324.27,55,9.84,9.84,0,0,0,320.34,51.95Z" transform="translate(-3.32 -2.83)"/><path d="M344.13,63.26a3.64,3.64,0,0,1-2.46-.72,3.52,3.52,0,0,1-.82-2.71V42.4h5.57V37h-5.57V29.27h-7.29V37H328.4V42.4h5.16V60.33q0,4.69,2.23,6.83a8.43,8.43,0,0,0,6.09,2.14,15,15,0,0,0,4.75-.7V63A11.5,11.5,0,0,1,344.13,63.26Z" transform="translate(-3.32 -2.83)"/><path d="M71.72,2.83H29.27A26,26,0,0,0,3.32,28.77V71.23A26,26,0,0,0,29.27,97.17H47V81.26A26.11,26.11,0,0,1,24.41,55.43v-7h7v7h8.7V38a10.43,10.43,0,0,1,20.87,0V55.43h8.7v-7h7v7A26.11,26.11,0,0,1,54,81.26V97.17H71.72A26,26,0,0,0,97.66,71.23V28.77A26,26,0,0,0,71.72,2.83Z" transform="translate(-3.32 -2.83)"/><path d="M54,57.17V38a3.48,3.48,0,1,0-7,0V57.17a3.48,3.48,0,1,0,7,0Z" transform="translate(-3.32 -2.83)"/><path d="M41.47,62.39H32.69a19.1,19.1,0,0,0,35.6,0H59.51a10.41,10.41,0,0,1-18,0Z" transform="translate(-3.32 -2.83)"/></svg>